<svg width="29" height="29" viewBox="0 0 29 29" fill="none" xmlns="http://www.w3.org/2000/svg">
<g id="Frame" clip-path="url(#clip0_1_243)">
<path id="Vector" d="M0.94103 1.56547e-05C0.807023 -0.00358936 0.673868 0.0264146 0.55012 0.0881005C0.426371 0.149786 0.314766 0.241789 0.222475 0.358199C0.134847 0.468752 0.0699106 0.602215 0.0328073 0.748022C-0.00429605 0.893829 -0.0125481 1.04798 0.00870443 1.19826L3.95627 27.8265C4.01667 28.1633 4.17301 28.4645 4.39849 28.6784C4.62398 28.8923 4.90457 29.0056 5.19218 28.9989H24.1144C24.3299 29.009 24.5414 28.9273 24.7114 28.7684C24.8815 28.6096 24.999 28.3837 25.0432 28.1309L28.988 1.20364C29.0089 1.05369 29.0005 0.899981 28.9634 0.754592C28.9263 0.609202 28.8616 0.476094 28.7743 0.365729C28.682 0.249319 28.5704 0.157316 28.4466 0.0956298C28.3229 0.033944 28.1897 0.00394 28.0557 0.00754502L0.94103 1.56547e-05ZM17.5495 19.2451H11.5101L9.87447 9.74413H19.0136L17.5495 19.2451Z" fill="#2684FF"/>
<path id="Vector_2" d="M27.7317 9.74411H19.013L17.5498 19.2451H11.5104L4.37869 28.6536C4.61007 28.8732 4.89635 28.9933 5.19156 28.9946H24.1192C24.3347 29.0047 24.5462 28.923 24.7162 28.7641C24.8862 28.6052 25.0037 28.3794 25.0479 28.1266L27.7317 9.74411Z" fill="url(#paint0_linear_1_243)"/>
</g>
<defs>
<linearGradient id="paint0_linear_1_243" x1="29.7401" y1="12.4008" x2="18.1949" y2="27.1549" gradientUnits="userSpaceOnUse">
<stop offset="0.18" stop-color="#0052CC"/>
<stop offset="1" stop-color="#2684FF"/>
</linearGradient>
<clipPath id="clip0_1_243">
<rect width="29" height="29" fill="white"/>
</clipPath>
</defs>
</svg>
