<svg width="95" height="18" viewBox="0 0 95 18" fill="none" xmlns="http://www.w3.org/2000/svg">
<g id="Frame" clip-path="url(#clip0_1_777)">
<path id="Vector" d="M7.67265 3.00148C6.55807 3.00148 6.23583 3.48298 6.23583 4.54498V6.30673H9.2088L8.91081 9.15298H6.23698V17.7907H2.66918V9.15298H0.265625V6.30673H2.66918V4.59335C2.66918 1.72235 3.85768 0.205856 7.17369 0.205856C7.86857 0.204268 8.56289 0.24447 9.25269 0.326231V3.00485L7.67265 3.00148Z" fill="#4267B2"/>
<path id="Vector_2" d="M9.45605 11.6865C9.45605 8.47802 11.0165 6.06152 14.2863 6.06152C16.0696 6.06152 17.1588 6.95477 17.6797 8.06402V6.30677H21.0973V17.7908H17.6797V16.0538C17.1842 17.1641 16.0696 18.0326 14.2863 18.0326C11.0165 18.0326 9.45605 15.6195 9.45605 12.4076V11.6865ZM13.0227 12.4594C13.0227 14.1716 13.666 15.3056 15.3258 15.3056C16.788 15.3056 17.5307 14.2684 17.5307 12.6281V11.475C17.5307 9.83477 16.788 8.79752 15.3258 8.79752C13.666 8.79752 13.0227 9.93152 13.0227 11.6438V12.4594Z" fill="#4267B2"/>
<path id="Vector_3" d="M28.5285 6.06494C29.9145 6.06494 31.2277 6.35519 31.9461 6.83669L31.1538 9.29819C30.4106 8.9535 29.5988 8.77222 28.7757 8.76719C26.8433 8.76719 26.0036 9.85282 26.0036 11.7113V12.3863C26.0036 14.2448 26.8456 15.3304 28.7757 15.3304C29.5988 15.3254 30.4106 15.1441 31.1538 14.7994L31.9461 17.2598C31.2277 17.7424 29.9156 18.0327 28.5285 18.0327C24.3416 18.0327 22.4347 15.8367 22.4347 12.3143V11.7833C22.4347 8.26094 24.3416 6.06494 28.5285 6.06494Z" fill="#4267B2"/>
<path id="Vector_4" d="M32.4163 12.4875V11.475C32.4163 8.21808 34.3232 6.07495 38.2132 6.07495C41.8792 6.07495 43.4893 8.2462 43.4893 11.4311V13.2648H35.9817C36.0568 14.8331 36.7752 15.5328 38.7538 15.5328C40.0924 15.5328 41.5038 15.2673 42.5445 14.8331L43.197 17.2124C42.2557 17.6962 40.3234 18.0573 38.6152 18.0573C34.1002 18.0562 32.4163 15.8624 32.4163 12.4875ZM35.9829 10.9912H40.2934V10.7021C40.2934 9.4477 39.7736 8.45208 38.2144 8.45208C36.6031 8.4532 35.9829 9.4432 35.9829 10.9867V10.9912Z" fill="#4267B2"/>
<path id="Vector_5" d="M56.7106 12.4111C56.7106 15.6196 55.1259 18.0361 51.8596 18.0361C50.0763 18.0361 48.8381 17.1676 48.3426 16.0572V17.7942H44.9746V0.540098L48.5413 0.225098V7.8976C49.061 6.8851 50.201 6.06385 51.8607 6.06385C55.1306 6.06385 56.7118 8.47697 56.7118 11.6888L56.7106 12.4111ZM53.144 11.6146C53.144 9.99797 52.5006 8.79197 50.7912 8.79197C49.329 8.79197 48.5366 9.80447 48.5366 11.4458V12.6518C48.5366 14.2921 49.329 15.3057 50.7912 15.3057C52.5006 15.3057 53.144 14.0997 53.144 12.4831V11.6146Z" fill="#4267B2"/>
<path id="Vector_6" d="M57.9037 12.3379V11.7597C57.9037 8.45332 59.836 6.06494 63.7746 6.06494C67.7131 6.06494 69.6466 8.45332 69.6466 11.7597V12.3379C69.6466 15.6432 67.7143 18.0327 63.7757 18.0327C59.8372 18.0327 57.9037 15.6432 57.9037 12.3379ZM66.0788 11.5178C66.0788 9.99794 65.4343 8.79194 63.7688 8.79194C62.1033 8.79194 61.4646 9.99794 61.4646 11.5178V12.5798C61.4646 14.0997 62.1091 15.3057 63.7688 15.3057C65.4285 15.3057 66.0788 14.0997 66.0788 12.5798V11.5178Z" fill="#4267B2"/>
<path id="Vector_7" d="M70.8328 12.3379V11.7597C70.8328 8.45332 72.7651 6.06494 76.7036 6.06494C80.6422 6.06494 82.5745 8.45332 82.5745 11.7597V12.3379C82.5745 15.6432 80.6422 18.0327 76.7036 18.0327C72.7651 18.0327 70.8328 15.6432 70.8328 12.3379ZM79.0079 11.5178C79.0079 9.99794 78.3634 8.79194 76.7036 8.79194C75.0439 8.79194 74.4006 9.99794 74.4006 11.5178V12.5798C74.4006 14.0997 75.0439 15.3057 76.7036 15.3057C78.3634 15.3057 79.0079 14.0997 79.0079 12.5798V11.5178Z" fill="#4267B2"/>
<path id="Vector_8" d="M87.4787 11.7833L90.9957 6.30685H94.7852L91.095 11.9768L94.9342 17.7908H91.1447L87.4787 12.1658V17.7908H83.9109V0.540098L87.4787 0.225098V11.7833Z" fill="#4267B2"/>
</g>
<defs>
<clipPath id="clip0_1_777">
<rect width="95" height="18" fill="white"/>
</clipPath>
</defs>
</svg>
