<svg width="95" height="42" viewBox="0 0 95 42" fill="none" xmlns="http://www.w3.org/2000/svg">
<g id="Frame">
<g id="logo art">
<path id="Vector" d="M34.6311 22.3611L33.2769 18.1849C33.2775 18.1868 33.2777 18.1888 33.2783 18.1907C33.2776 18.1885 33.2772 18.1863 33.2766 18.1841L33.2766 18.1837V18.1836L30.5881 9.89615C30.441 9.45954 30.0363 9.16652 29.5724 9.1702C29.1071 9.1726 28.7136 9.45992 28.5696 9.90253L26.0177 17.7689H17.9656L15.4089 9.90208C15.2651 9.45992 14.8716 9.1726 14.4063 9.1702H14.4007C13.9426 9.1702 13.5371 9.46142 13.3885 9.90291L10.7074 18.1829L10.707 18.184V18.1842C10.7063 18.1863 10.706 18.1884 10.7054 18.1905C10.706 18.1886 10.7062 18.1867 10.7068 18.1848L9.34752 22.3613C9.24749 22.6674 9.24707 22.9975 9.34631 23.3039C9.44556 23.6104 9.63936 23.8773 9.89981 24.0665L21.6363 32.6046C21.638 32.6059 21.64 32.6067 21.6417 32.6079C21.6467 32.6115 21.6516 32.6152 21.6567 32.6186C21.6519 32.6154 21.6474 32.6118 21.6427 32.6085L21.6426 32.6085C21.6433 32.6091 21.6442 32.6094 21.6451 32.61L21.6471 32.6112L21.6474 32.6114C21.6656 32.624 21.6844 32.6356 21.7039 32.6462C21.7066 32.6477 21.709 32.6496 21.7117 32.651L21.7119 32.6511C21.7135 32.6519 21.715 32.6529 21.7167 32.6538C21.7179 32.6544 21.7193 32.6547 21.7205 32.6553C21.7214 32.6558 21.7224 32.6561 21.7233 32.6565C21.7254 32.6575 21.7278 32.6582 21.73 32.6593C21.7402 32.6642 21.751 32.6682 21.7615 32.6725C21.7713 32.6765 21.7808 32.6813 21.7909 32.6848L21.7921 32.6853C21.7938 32.6859 21.7953 32.6867 21.797 32.6873C21.7991 32.6881 21.8012 32.6889 21.8033 32.6896L21.8057 32.6902C21.8084 32.691 21.8112 32.6914 21.8138 32.6922L21.817 32.6929C21.8311 32.6972 21.8457 32.7003 21.8603 32.7035C21.866 32.7048 21.8715 32.7066 21.8772 32.7076L21.8797 32.7082C21.8816 32.7086 21.8833 32.7093 21.8853 32.7096C21.8883 32.7101 21.8913 32.7111 21.8945 32.7115C21.897 32.7119 21.8995 32.7118 21.902 32.7121L21.9033 32.7122H21.9037C21.9313 32.7162 21.9594 32.719 21.988 32.719H21.989C22.0176 32.719 22.0457 32.7162 22.0735 32.7122H22.0738L22.0751 32.7121C22.0776 32.7118 22.0802 32.7119 22.0827 32.7115C22.0859 32.711 22.0889 32.7101 22.092 32.7096C22.0939 32.7093 22.0956 32.7086 22.0975 32.7082L22.0999 32.7076C22.1057 32.7065 22.1114 32.7047 22.1172 32.7034C22.1316 32.7003 22.146 32.6972 22.16 32.693L22.1629 32.6923C22.1657 32.6915 22.1685 32.6911 22.1713 32.6903C22.1721 32.69 22.173 32.6899 22.1739 32.6897C22.176 32.689 22.1782 32.6881 22.1803 32.6873C22.1819 32.6867 22.1834 32.6859 22.1851 32.6853L22.1863 32.6848C22.197 32.681 22.207 32.6761 22.2175 32.6718C22.2272 32.6677 22.2371 32.6641 22.2465 32.6596C22.2488 32.6585 22.2513 32.6578 22.2536 32.6567L22.2564 32.6555C22.2577 32.6549 22.259 32.6545 22.2603 32.6538C22.262 32.6529 22.2637 32.6519 22.2653 32.6511L22.2654 32.651C22.2682 32.6496 22.2707 32.6475 22.2734 32.646C22.2928 32.6355 22.3116 32.624 22.3297 32.6115C22.3311 32.6105 22.3327 32.6097 22.3342 32.6087L22.3354 32.6079C22.3372 32.6067 22.3392 32.6058 22.3409 32.6045L34.079 24.0662C34.3394 23.877 34.5332 23.61 34.6324 23.3037C34.7316 22.9973 34.7311 22.6673 34.6311 22.3611ZM29.5797 10.6726L31.8818 17.7689H27.2778L29.5797 10.6726ZM31.4787 18.9689L30.5393 20.174L23.6111 29.0623L26.8884 18.9688H31.4787V18.9689ZM21.4187 32.3046C21.4187 32.3045 21.4187 32.3045 21.4187 32.3046C21.4193 32.3064 21.4203 32.3081 21.4209 32.3099C21.4203 32.3081 21.4193 32.3064 21.4187 32.3046ZM20.3676 29.0629L12.5044 18.9689H17.095L20.3676 29.0629ZM14.399 10.6725L16.7053 17.7689H12.1012L14.399 10.6725ZM10.6044 23.0957C10.549 23.0553 10.5078 22.9984 10.4867 22.9331C10.4656 22.8678 10.4658 22.7975 10.4871 22.7323L11.4976 19.6276L18.9012 29.1315L10.6044 23.0957ZM21.6157 32.5888C21.6133 32.5869 21.6111 32.5849 21.6088 32.5829L21.6074 32.5816C21.6029 32.5779 21.5985 32.574 21.5941 32.5701C21.5855 32.5627 21.5772 32.5551 21.5691 32.5471L21.5712 32.5489L21.574 32.5512C21.5912 32.5677 21.6093 32.5831 21.6282 32.5974L21.6288 32.5979C21.6297 32.5986 21.6304 32.5994 21.6313 32.6002C21.6261 32.5964 21.6207 32.5928 21.6157 32.5888ZM21.9889 30.1773L20.0632 24.2377L18.3549 18.9689H25.6282L21.9889 30.1773ZM22.383 32.5701C22.3785 32.574 22.3742 32.5779 22.3696 32.5816L22.368 32.5831C22.3657 32.5849 22.3635 32.587 22.3612 32.5888C22.3563 32.5928 22.3509 32.5964 22.3457 32.6003C22.3466 32.5996 22.3474 32.5987 22.3483 32.5981L22.3488 32.5976C22.3677 32.5834 22.3857 32.568 22.4027 32.5516C22.4034 32.5509 22.4042 32.5504 22.4049 32.5498C22.4058 32.5489 22.4068 32.5483 22.4076 32.5474C22.3996 32.5552 22.3914 32.5628 22.383 32.5701ZM33.3744 23.0956L25.0789 29.1297L32.4849 19.6284L33.4913 22.7317C33.5127 22.7969 33.513 22.8673 33.492 22.9327C33.471 22.998 33.4298 23.0551 33.3744 23.0956Z" fill="#231F20"/>
<path id="path14 9" d="M63.0107 14.8909H61.3748L61.3823 27.1002H68.0083V25.59H63.0182L63.0107 14.8909Z" fill="#231F20"/>
<g id="g24 9">
<path id="path26 9" d="M74.3136 24.9576C73.9009 25.3859 73.2181 25.8141 72.2876 25.8141C71.0419 25.8141 70.5391 25.198 70.5391 24.3941C70.5391 23.1844 71.3796 22.6059 73.1655 22.6059C73.5032 22.6059 74.0435 22.6435 74.3211 22.6961V24.9576H74.3136ZM72.6177 17.5569C71.297 17.5569 70.0814 18.0227 69.1359 18.8116L69.7137 19.8184C70.3816 19.4277 71.1995 19.037 72.3776 19.037C73.7208 19.037 74.3136 19.7283 74.3136 20.8853V21.4789C74.051 21.4263 73.5107 21.3887 73.1805 21.3887C70.314 21.3887 68.8582 22.3955 68.8582 24.4993C68.8582 26.3851 70.0139 27.3318 71.7623 27.3318C72.9404 27.3318 74.0735 26.7909 74.4637 25.9118L74.7639 27.1064H75.9195V20.8553C75.912 18.8792 75.0565 17.5569 72.6177 17.5569Z" fill="#231F20"/>
</g>
<g id="g28 9">
<path id="path30 9" d="M81.1978 25.8702C80.5825 25.8702 80.0422 25.795 79.637 25.6072V19.9646C80.1923 19.4988 80.8826 19.1607 81.7606 19.1607C83.3439 19.1607 83.9518 20.2802 83.9518 22.0909C83.9518 24.6605 82.9687 25.8702 81.1978 25.8702ZM81.8882 17.5603C80.4249 17.5603 79.637 18.5596 79.637 18.5596V16.9818L79.6295 14.8931H78.0311L78.0386 26.8018C78.8416 27.1399 79.9371 27.3203 81.1303 27.3203C84.1844 27.3203 85.6552 25.3668 85.6552 21.9932C85.6477 19.326 84.2894 17.5603 81.8882 17.5603Z" fill="#231F20"/>
</g>
<g id="g32 9">
<path id="path34 9" d="M45.1994 16.2155C46.6477 16.2155 47.5857 16.6963 48.1935 17.1847L48.8989 15.96C47.9459 15.1185 46.6552 14.6677 45.2745 14.6677C41.7927 14.6677 39.3539 16.794 39.3539 21.0842C39.3539 25.5772 41.9878 27.3278 44.9968 27.3278C46.5051 27.3278 47.7883 26.9747 48.6287 26.6216L48.5912 21.8205V20.3103H44.1264V21.8205H46.9779L47.0154 25.4645C46.6402 25.6524 45.9949 25.8026 45.1169 25.8026C42.7006 25.8026 41.0798 24.2774 41.0798 21.0692C41.0723 17.8008 42.7457 16.2155 45.1994 16.2155Z" fill="#231F20"/>
</g>
<g id="g36 9">
<path id="path38 9" d="M56.7201 14.8892H55.1217L55.1292 16.9403V24.0255C55.1292 26.0015 55.9847 27.3239 58.4235 27.3239C58.7611 27.3239 59.0913 27.2938 59.4065 27.2337V25.7987C59.1739 25.8362 58.9262 25.8512 58.6636 25.8512C57.3204 25.8512 56.7276 25.16 56.7276 24.0029V19.1192H59.4065V17.7818H56.7276L56.7201 14.8892Z" fill="#231F20"/>
</g>
<path id="path40 28" d="M51.0569 27.1003H52.6552V17.7837H51.0569V27.1003Z" fill="#231F20"/>
<path id="path42 9" d="M51.0569 16.4988H52.6552V14.8984H51.0569V16.4988Z" fill="#231F20"/>
</g>
</g>
</svg>
